{"title":"Restless S01 RB58","uid":9646994,"size":1512172994,"categoryP":"video","categoryS":"tv_shows","magnet":"?xt=urn:btih:18730c1c8a594df2e248366fca42326cbf54052c&amp;dn=Restless+S01+RB58&amp;tr=udp%3A%2F%2Ftracker.openbittorrent.com%3A80&amp;tr=udp%3A%2F%2Fopen.demonii.com%3A1337&amp;tr=udp%3A%2F%2Ftracker.coppersurfer.tk%3A6969&amp;tr=udp%3A%2F%2Fexodus.desync.com%3A6969","seeders":1,"leechers":0,"uploader":"RedBaron58","files":2,"time":1393020561,"description":"Description: Restless BBC miniseries 2012\n &lt;a href=&quot;\nhttp://www.imdb.com/title/tt2241676/&quot; rel=&quot;nofollow&quot; target=&quot;_NEW&quot;&gt;\nhttp://www.imdb.com/title/tt2241676/&lt;/a&gt;\n\nPlease be patient My upload speed is limited, but I am online most the time and during the night.\nThank you for your kind comments and thumbs ups on my other torrents, your feedback is welcome.\n\n\nAbout the Series:\n\nRuth Gilmartin visits her mother Sally in rural Cambridgeshire and is amazed to learn she is a \nRussian refugee born Eva Delectorskaya,recruited as a spy by the British in 1939. \nAfter narrowly escaping death in the Netherlands Eva is sent to America to seduce the married \nMason Harding,an adviser to the president,to find out if the Americans intend joining the war,\na mission she successfully accomplishes. \nHowever a second assignment is to supply a map to American agents supposedly outlining a planned \nGerman invasion of the States but Eva spots errors in the map,informing her spy master and lover \nLucas Romer and other colleagues.\nEva survives an attempt to kill her and,as her fellow spies die one by one,is convinced she was \nbetrayed. Even in the 1970s ,years after the event,she believes her life is in danger and shocks \nRuth by buying a shotgun for her protection. \nShe gets Ruth to contact Romer,posing as a journalist interested in wartime espionage\n\nThe Story is in 2 Episodes of 90 minutes each.\n\nI hope you enjoy.\n\n\nTechnical:\n\nGeneral\nComplete name                            : E:Restless S01E01 x264 RB58.mp4\nFormat                                   : MPEG-4\nFormat profile                           : Base Media\nCodec ID                                 : isom\nFile size                                : 718 MiB\nDuration                                 : 1h 28mn\nOverall bit rate                         : 1 136 Kbps\nWriting application                      : Lavf54.29.104\n\nVideo\nID                                       : 1\nFormat                                   : AVC\nFormat/Info                              : Advanced Video Codec\nFormat profile                           : &lt;a class=&quot;__cf_email__&quot; href=&quot;/cdn-cgi/l/email-protection&quot; data-cfemail=&quot;b6fedfd1def6fa859887&quot;&gt;[email&amp;#160;protected]&lt;/a&gt;&lt;script cf-hash='f9e31' type=&quot;text/javascript&quot;&gt;\n/* &lt;![CDATA[ */!function(){try{var t=&quot;currentScript&quot;in document?document.currentScript:function(){for(var t=document.getElementsByTagName(&quot;script&quot;),e=t.length;e--;)if(t[e].getAttribute(&quot;cf-hash&quot;))return t[e]}();if(t&amp;&amp;t.previousSibling){var e,r,n,i,c=t.previousSibling,a=c.getAttribute(&quot;data-cfemail&quot;);if(a){for(e=&quot;&quot;,r=parseInt(a.substr(0,2),16),n=2;a.length-n;n+=2)i=parseInt(a.substr(n,2),16)^r,e+=String.fromCharCode(i);e=document.createTextNode(e),c.parentNode.replaceChild(e,c)}}}catch(u){}}();/* ]]&gt; */&lt;/script&gt;\nFormat settings, CABAC                   : Yes\nFormat settings, ReFrames                : 2 frames\nCodec ID                                 : avc1\nCodec ID/Info                            : Advanced Video Coding\nDuration                                 : 1h 28mn\nBit rate                                 : 1 000 Kbps\nWidth                                    : 1 024 pixels\nHeight                                   : 576 pixels\nDisplay aspect ratio                     : 16:9\nFrame rate mode                          : Variable\nFrame rate                               : 25.000 fps\nMinimum frame rate                       : 24.704 fps\nMaximum frame rate                       : 25.381 fps\nColor space                              : YUV\nChroma subsampling                       : 4:2:0\nBit depth                                : 8 bits\nScan type                                : Progressive\nBits/(Pixel*Frame)                       : 0.068\nStream size                              : 632 MiB (88%)\nWriting library                          : x264 core 129 r2230 1cffe9f\nEncoding settings                        : cabac=1 / ref=2 / deblock=0:0:0 / analyse=0x3:0x113 / me=dia / subme=7 / psy=1 / psy_rd=0.00:0.00 / mixed_ref=0 / me_range=16 / chroma_me=0 / trellis=1 / 8x8dct=1 / cqm=0 / deadzone=21,21 / fast_pskip=1 / chroma_qp_offset=0 / threads=3 / lookahead_threads=1 / sliced_threads=0 / nr=0 / decimate=0 / interlaced=0 / bluray_compat=0 / constrained_intra=0 / bframes=2 / b_pyramid=0 / b_adapt=0 / b_bias=0 / direct=0 / weightb=0 / open_gop=0 / weightp=0 / keyint=500 / keyint_min=100 / scenecut=40 / intra_refresh=0 / rc=2pass / mbtree=0 / bitrate=1000 / ratetol=1.0 / qcomp=0.60 / qpmin=0 / qpmax=69 / qpstep=4 / cplxblur=20.0 / qblur=0.5 / ip_ratio=1.40 / pb_ratio=1.30 / aq=0\n\nAudio\nID                                       : 2\nFormat                                   : MPEG Audio\nFormat version                           : Version 1\nFormat profile                           : Layer 3\nCodec ID                                 : 6B\nDuration                                 : 1h 28mn\nBit rate mode                            : Constant\nBit rate                                 : 128 Kbps\nChannel(s)                               : 2 channels\nSampling rate                            : 48.0 KHz\nCompression mode                         : Lossy\nStream size                              : 80.9 MiB (11%)","torrent":{"xt":"urn:btih:18730c1c8a594df2e248366fca42326cbf54052c","amp;dn":"Restless+S01+RB58","amp;tr":["udp%3A%2F%2Ftracker.openbittorrent.com%3A80","udp%3A%2F%2Fopen.demonii.com%3A1337","udp%3A%2F%2Ftracker.coppersurfer.tk%3A6969","udp%3A%2F%2Fexodus.desync.com%3A6969"],"infoHash":"18730c1c8a594df2e248366fca42326cbf54052c","infoHashBuffer":{"type":"Buffer","data":[24,115,12,28,138,89,77,242,226,72,54,111,202,66,50,108,191,84,5,44]},"announce":[],"urlList":[]}}